# xmcd
#
# Track frame offsets:
#	150
#	12694
#	25650
#	42505
#	58721
#	76288
#	89952
#	102312
#	116054
#	122982
#	138075
#	154788
#
# Disc length: 2330 seconds
#
# Revision: 3
# Processed by: cddbd v1.4PL0 Copyright (c) Steve Scherf et al.
# Submitted via: audiograbber 1.82.01
#
DISCID=a509180c
DTITLE=Joxe Ripiau - Bizitza Triste eta Ederra
DYEAR=1900
DGENRE=Blues
TTITLE0=Ijitoen Estigma
TTITLE1=Antoine Nahasia
TTITLE2=Armen Kultuaren Aurka
TTITLE3=Ichi Do Kiri Dake
TTITLE4=Sorgindu Nahi Ninduzun
TTITLE5=Sobera Isil
TTITLE6=Batzuk Babilonia
TTITLE7=Gaslight
TTITLE8=SDF
TTITLE9=Gabriela
TTITLE10=Bi Bihotz
TTITLE11=Bizitza Triste eta Ederra
EXTD=
EXTT0=
EXTT1=
EXTT2=
EXTT3=
EXTT4=
EXTT5=
EXTT6=
EXTT7=
EXTT8=
EXTT9=
EXTT10=
EXTT11=
PLAYORDER=
